<svg width="133" height="59" viewBox="0 0 133 59" fill="none" xmlns="http://www.w3.org/2000/svg">
<path fill-rule="evenodd" clip-rule="evenodd" d="M51.1909 49.2641L65.743 7.40916L55.6062 28.3366L17.7406 28.3366L7.40767 49.2641L51.1909 49.2641ZM50.9634 20.929L17.7406 20.929C14.9214 20.929 12.3466 22.5292 11.0985 25.0571L0.765536 45.9845C-0.36816 48.2806 -0.235591 50.9994 1.11612 53.1743C2.46782 55.3492 4.84694 56.6717 7.40766 56.6717L51.1909 56.6717C54.3444 56.6717 57.1521 54.6753 58.1877 51.6967L72.7398 9.84181C74.0283 6.13574 72.2035 2.0678 68.5787 0.565771C64.9539 -0.936258 60.7867 0.648716 59.0762 4.17995L50.9634 20.929Z" fill="white"/>
<path fill-rule="evenodd" clip-rule="evenodd" d="M81.8091 9.14534L67.257 51.0003L77.59 30.0728L115.456 30.0728L125.592 9.14534L81.8091 9.14534ZM82.1938 37.4805L115.456 37.4805C118.295 37.4805 120.885 35.8574 122.122 33.302L132.259 12.3745C133.371 10.0789 133.224 7.37268 131.869 5.21135C130.514 3.05003 128.143 1.73768 125.592 1.73768L81.8091 1.73768C78.6557 1.73768 75.8479 3.73411 74.8123 6.71268L60.2602 48.5676C58.9752 52.2635 60.7863 56.3213 64.3954 57.8329C68.0045 59.3444 72.1668 57.7883 73.8992 54.2798L82.1938 37.4805Z" fill="white"/>
</svg>
